<?xml version="1.0" encoding="utf-8"?>
<!-- Generator: Adobe Illustrator 16.0.0, SVG Export Plug-In . SVG Version: 6.00 Build 0)  -->
<!DOCTYPE svg PUBLIC "-//W3C//DTD SVG 1.1//EN" "http://www.w3.org/Graphics/SVG/1.1/DTD/svg11.dtd">
<svg version="1.1" id="Capa_1" xmlns="http://www.w3.org/2000/svg" xmlns:xlink="http://www.w3.org/1999/xlink" x="0px" y="0px"
	 width="125px" height="125px" viewBox="0 0 125 125" enable-background="new 0 0 125 125" xml:space="preserve">
<g id="Capa_2">
</g>
<g id="Capa_3">
</g>
<g id="Capa_1_1_">
	<path d="M123.896,62.75c0,33.962-27.539,61.5-61.5,61.5c-33.963,0-61.5-27.538-61.5-61.5c0-33.963,27.537-61.5,61.5-61.5
		C96.359,1.25,123.896,28.787,123.896,62.75z"/>
	<path fill="#FFFFFF" d="M95.674,81.512l-7.211-14.929l-7.265,14.694L63.346,44.232h8.25l9.951,19.836l3.297-5.944l-7.182-13.892
		h8.246l9.688,19.54l9.737-19.54h8.25L95.674,81.512z"/>
	<g>
		<path fill="#FFFFFF" d="M29.517,44.22l17.697,37.325H39.08l-9.601-19.827l-9.548,19.827h-8.135"/>
	</g>
	<path fill="#FFFFFF" d="M58.378,74.022h9.052v7.427H50.898V44.048h7.479V74.022z"/>
</g>
<g id="Capa_4">
</g>
<path fill="#FFFFFF" d="M59.014,73.885h8.916v7.314H51.648V44.364h7.366V73.885z"/>
</svg>
